<svg width="1920" height="847" viewBox="0 0 1920 847" fill="none" xmlns="http://www.w3.org/2000/svg">
<g clip-path="url(#clip0_426_468)">
<g opacity="0.24" filter="url(#filter0_f_426_468)">
<path d="M1570.52 103.039C1555.24 98.944 1541.51 90.4087 1531.08 78.5126C1520.65 66.6166 1513.98 51.8942 1511.91 36.2071C1509.85 20.52 1512.48 4.57281 1519.48 -9.61789C1526.48 -23.8086 1537.52 -35.6055 1551.23 -43.5167C1564.93 -51.4279 1580.67 -55.0981 1596.46 -54.0631C1612.25 -53.0282 1627.38 -47.3345 1639.93 -37.7022C1652.48 -28.0699 1661.9 -14.9316 1666.98 0.05138C1672.07 15.0344 1672.6 31.189 1668.5 46.4725C1663.01 66.9666 1649.6 84.4396 1631.23 95.0479C1612.85 105.656 1591.02 108.531 1570.52 103.039ZM1606.17 -30.0137C1575.42 -38.2548 1543.69 -19.9358 1535.45 10.8212C1527.21 41.5783 1545.52 73.303 1576.28 81.5427C1607.03 89.7825 1638.76 71.4679 1647 40.7131C1655.24 9.95824 1636.93 -21.7731 1606.17 -30.0137Z" fill="url(#paint0_linear_426_468)"/>
</g>
<g opacity="0.24" filter="url(#filter1_f_426_468)">
<path d="M1857.89 888.68C1822.55 898.149 1785.2 896.926 1750.55 885.164C1715.9 873.403 1685.52 851.631 1663.24 822.603C1640.97 793.574 1627.8 758.593 1625.41 722.082C1623.02 685.571 1631.51 649.17 1649.8 617.483C1668.1 585.795 1695.38 560.244 1728.19 544.061C1761.01 527.878 1797.89 521.79 1834.16 526.566C1870.44 531.343 1904.49 546.769 1932 570.894C1959.51 595.02 1979.24 626.761 1988.71 662.104C2001.41 709.498 1994.76 759.994 1970.23 802.485C1945.69 844.976 1905.29 875.981 1857.89 888.68Z" fill="url(#paint1_linear_426_468)"/>
</g>
<g opacity="0.24" filter="url(#filter2_f_426_468)">
<path d="M356.506 613.897C341.222 617.992 325.068 617.463 310.085 612.377C295.103 607.291 281.965 597.876 272.333 585.323C262.701 572.77 257.007 557.643 255.972 541.855C254.938 526.066 258.608 510.325 266.519 496.623C274.43 482.92 286.227 471.871 300.418 464.873C314.609 457.875 330.556 455.242 346.244 457.307C361.931 459.373 376.653 466.044 388.549 476.476C400.445 486.909 408.981 500.635 413.076 515.918C418.567 536.413 415.691 558.249 405.082 576.624C394.473 594.998 377 608.406 356.506 613.897Z" fill="url(#paint2_linear_426_468)"/>
</g>
<g opacity="0.24" filter="url(#filter3_f_426_468)">
<path d="M190.649 178.73C180.141 181.546 169.035 181.182 158.735 177.685C148.434 174.189 139.402 167.716 132.78 159.086C126.158 150.456 122.243 140.056 121.532 129.201C120.821 118.347 123.344 107.525 128.783 98.1043C134.222 88.6836 142.332 81.0875 152.088 76.2763C161.845 71.4652 172.809 69.6551 183.593 71.0751C194.378 72.495 204.5 77.0812 212.679 84.2537C220.857 91.4262 226.725 100.863 229.541 111.37C233.315 125.46 231.339 140.473 224.045 153.105C216.751 165.737 204.738 174.955 190.649 178.73Z" fill="url(#paint3_linear_426_468)"/>
</g>
<g opacity="0.24" filter="url(#filter4_f_426_468)">
<path d="M18.9171 761.751C6.30848 758.372 -5.01512 751.331 -13.6218 741.516C-22.2284 731.702 -27.7316 719.556 -29.4354 706.614C-31.1391 693.672 -28.967 680.516 -23.1935 668.809C-17.4201 657.101 -8.30479 647.369 2.99982 640.842C14.3046 634.315 27.291 631.288 40.3167 632.141C53.3423 632.995 65.8223 637.692 76.1784 645.639C86.5345 653.586 94.3016 664.425 98.4975 676.786C102.693 689.147 103.13 702.474 99.751 715.083C95.22 731.991 84.1581 746.406 68.9989 755.158C53.8397 763.91 35.8248 766.281 18.9171 761.751ZM48.3304 651.982C22.9578 645.183 -3.21682 660.296 -10.0164 685.671C-16.816 711.046 -1.70468 737.218 23.6679 744.016C49.0405 750.814 75.2151 735.704 82.0128 710.332C88.8106 684.959 73.7029 658.781 48.3304 651.982Z" fill="url(#paint4_linear_426_468)"/>
</g>
</g>
<defs>
<filter id="filter0_f_426_468" x="1495.23" y="-70.2345" width="192" height="192" filterUnits="userSpaceOnUse" color-interpolation-filters="sRGB">
<feFlood flood-opacity="0" result="BackgroundImageFix"/>
<feBlend mode="normal" in="SourceGraphic" in2="BackgroundImageFix" result="shape"/>
<feGaussianBlur stdDeviation="8" result="effect1_foregroundBlur_426_468"/>
</filter>
<filter id="filter1_f_426_468" x="1566.27" y="466.242" width="487.484" height="487.482" filterUnits="userSpaceOnUse" color-interpolation-filters="sRGB">
<feFlood flood-opacity="0" result="BackgroundImageFix"/>
<feBlend mode="normal" in="SourceGraphic" in2="BackgroundImageFix" result="shape"/>
<feGaussianBlur stdDeviation="29.3707" result="effect1_foregroundBlur_426_468"/>
</filter>
<filter id="filter2_f_426_468" x="197.06" y="397.881" width="277.483" height="277.483" filterUnits="userSpaceOnUse" color-interpolation-filters="sRGB">
<feFlood flood-opacity="0" result="BackgroundImageFix"/>
<feBlend mode="normal" in="SourceGraphic" in2="BackgroundImageFix" result="shape"/>
<feGaussianBlur stdDeviation="29.3707" result="effect1_foregroundBlur_426_468"/>
</filter>
<filter id="filter3_f_426_468" x="62.6727" y="11.863" width="227.483" height="227.483" filterUnits="userSpaceOnUse" color-interpolation-filters="sRGB">
<feFlood flood-opacity="0" result="BackgroundImageFix"/>
<feBlend mode="normal" in="SourceGraphic" in2="BackgroundImageFix" result="shape"/>
<feGaussianBlur stdDeviation="29.3707" result="effect1_foregroundBlur_426_468"/>
</filter>
<filter id="filter4_f_426_468" x="-46" y="616" width="164" height="164" filterUnits="userSpaceOnUse" color-interpolation-filters="sRGB">
<feFlood flood-opacity="0" result="BackgroundImageFix"/>
<feBlend mode="normal" in="SourceGraphic" in2="BackgroundImageFix" result="shape"/>
<feGaussianBlur stdDeviation="8" result="effect1_foregroundBlur_426_468"/>
</filter>
<linearGradient id="paint0_linear_426_468" x1="1561.46" y1="49.6913" x2="1612.07" y2="82.1552" gradientUnits="userSpaceOnUse">
<stop stop-color="#2ED573"/>
<stop offset="1" stop-color="#25AA5C"/>
</linearGradient>
<linearGradient id="paint1_linear_426_468" x1="1778.06" y1="792.321" x2="1916.96" y2="798.81" gradientUnits="userSpaceOnUse">
<stop stop-color="#2ED573"/>
<stop offset="1" stop-color="#25AA5C"/>
</linearGradient>
<linearGradient id="paint2_linear_426_468" x1="321.982" y1="572.228" x2="382.049" y2="575.034" gradientUnits="userSpaceOnUse">
<stop stop-color="#2ED573"/>
<stop offset="1" stop-color="#25AA5C"/>
</linearGradient>
<linearGradient id="paint3_linear_426_468" x1="166.914" y1="150.083" x2="208.21" y2="152.012" gradientUnits="userSpaceOnUse">
<stop stop-color="#2ED573"/>
<stop offset="1" stop-color="#25AA5C"/>
</linearGradient>
<linearGradient id="paint4_linear_426_468" x1="11.4394" y1="717.739" x2="53.1982" y2="744.521" gradientUnits="userSpaceOnUse">
<stop stop-color="#2ED573"/>
<stop offset="1" stop-color="#25AA5C"/>
</linearGradient>
<clipPath id="clip0_426_468">
<rect width="1920" height="847" fill="white"/>
</clipPath>
</defs>
</svg>
