<svg width="27" height="28" viewBox="0 0 27 28" fill="none" xmlns="http://www.w3.org/2000/svg">
<path d="M26.0387 6.9342C26.3444 5.94819 26.4425 4.90955 26.3267 3.88376C26.211 2.85798 25.8839 1.8673 25.3662 0.974199C25.2785 0.822146 25.1522 0.695887 25.0001 0.608117C24.8481 0.520347 24.6756 0.474159 24.5 0.474198C23.3352 0.47176 22.186 0.741779 21.1442 1.26268C20.1024 1.78358 19.1969 2.54092 18.5 3.4742H15.5C14.8031 2.54092 13.8976 1.78358 12.8558 1.26268C11.814 0.741779 10.6648 0.47176 9.5 0.474198C9.32443 0.474159 9.15193 0.520347 8.99987 0.608117C8.84781 0.695887 8.72154 0.822146 8.63375 0.974199C8.11606 1.8673 7.78903 2.85798 7.67329 3.88376C7.55754 4.90955 7.65559 5.94819 7.96125 6.9342C7.34341 8.01259 7.01245 9.23142 7 10.4742V11.4742C7.0021 13.1662 7.61634 14.8003 8.72928 16.0748C9.84222 17.3492 11.3787 18.178 13.055 18.4079C12.3708 19.2835 11.9994 20.363 12 21.4742V22.4742H9C8.20435 22.4742 7.44129 22.1581 6.87868 21.5955C6.31607 21.0329 6 20.2698 6 19.4742C6 18.8176 5.87067 18.1674 5.6194 17.5608C5.36812 16.9542 4.99983 16.403 4.53553 15.9387C4.07124 15.4744 3.52005 15.1061 2.91342 14.8548C2.30679 14.6035 1.65661 14.4742 1 14.4742C0.734784 14.4742 0.48043 14.5796 0.292893 14.7671C0.105357 14.9546 0 15.209 0 15.4742C0 15.7394 0.105357 15.9938 0.292893 16.1813C0.48043 16.3688 0.734784 16.4742 1 16.4742C1.79565 16.4742 2.55871 16.7903 3.12132 17.3529C3.68393 17.9155 4 18.6786 4 19.4742C4 20.8003 4.52678 22.0721 5.46447 23.0097C6.40215 23.9474 7.67392 24.4742 9 24.4742H12V26.4742C12 26.7394 12.1054 26.9938 12.2929 27.1813C12.4804 27.3688 12.7348 27.4742 13 27.4742C13.2652 27.4742 13.5196 27.3688 13.7071 27.1813C13.8946 26.9938 14 26.7394 14 26.4742V21.4742C14 20.6786 14.3161 19.9155 14.8787 19.3529C15.4413 18.7903 16.2044 18.4742 17 18.4742C17.7956 18.4742 18.5587 18.7903 19.1213 19.3529C19.6839 19.9155 20 20.6786 20 21.4742V26.4742C20 26.7394 20.1054 26.9938 20.2929 27.1813C20.4804 27.3688 20.7348 27.4742 21 27.4742C21.2652 27.4742 21.5196 27.3688 21.7071 27.1813C21.8946 26.9938 22 26.7394 22 26.4742V21.4742C22.0006 20.363 21.6292 19.2835 20.945 18.4079C22.6213 18.178 24.1578 17.3492 25.2707 16.0748C26.3837 14.8003 26.9979 13.1662 27 11.4742V10.4742C26.9875 9.23142 26.6566 8.01259 26.0387 6.9342ZM25 11.4742C25 12.8003 24.4732 14.0721 23.5355 15.0097C22.5979 15.9474 21.3261 16.4742 20 16.4742H14C12.6739 16.4742 11.4021 15.9474 10.4645 15.0097C9.52678 14.0721 9 12.8003 9 11.4742V10.4742C9.01226 9.47423 9.31164 8.49885 9.8625 7.6642C9.96519 7.52885 10.0317 7.36957 10.0558 7.20138C10.0798 7.0332 10.0606 6.86166 10 6.70295C9.73953 6.03119 9.61417 5.31464 9.63112 4.59436C9.64806 3.87407 9.80698 3.16421 10.0988 2.50545C10.9171 2.59349 11.7052 2.86459 12.4046 3.29866C13.104 3.73273 13.6966 4.31864 14.1388 5.01295C14.2288 5.15383 14.3528 5.26987 14.4994 5.35045C14.6459 5.43103 14.8103 5.47358 14.9775 5.4742H19.0212C19.1891 5.4742 19.3543 5.43196 19.5015 5.35135C19.6487 5.27074 19.7733 5.15436 19.8638 5.01295C20.3058 4.31858 20.8985 3.73262 21.5978 3.29855C22.2972 2.86447 23.0853 2.5934 23.9037 2.50545C24.1951 3.16438 24.3536 3.87432 24.3701 4.59461C24.3866 5.31489 24.2609 6.03136 24 6.70295C23.9396 6.86014 23.9193 7.02994 23.9412 7.19693C23.963 7.36393 24.0262 7.52282 24.125 7.6592C24.6813 8.49386 24.9851 9.47124 25 10.4742V11.4742Z" fill="#2ED573"/>
</svg>
