<svg width="20" height="21" viewBox="0 0 20 21" fill="none" xmlns="http://www.w3.org/2000/svg">
<path d="M18.6436 7.84921L16.9561 4.92608C16.7348 4.54232 16.42 4.22079 16.041 3.99145C15.662 3.76211 15.2311 3.63241 14.7885 3.61445C14.3458 3.59648 13.9058 3.69082 13.5095 3.88869C13.1132 4.08656 12.7733 4.38151 12.5217 4.74608L11.0836 2.25327C10.8561 1.85932 10.5301 1.53126 10.1376 1.30124C9.74512 1.07123 9.2996 0.947158 8.84472 0.941202C8.38984 0.935247 7.94122 1.04761 7.54285 1.26727C7.14448 1.48693 6.81003 1.80635 6.5723 2.19421C6.10801 1.7762 5.50985 1.53749 4.88533 1.52098C4.26081 1.50446 3.65088 1.71122 3.16514 2.10411C2.6794 2.49699 2.34971 3.05023 2.23532 3.66441C2.12093 4.27858 2.22933 4.91342 2.54105 5.45483L2.85418 5.99765C2.41256 6.03314 1.98711 6.17982 1.61746 6.42404C1.24781 6.66826 0.945983 7.00207 0.740101 7.39437C0.534219 7.78667 0.430979 8.22469 0.439997 8.66764C0.449015 9.11059 0.569999 9.54405 0.791677 9.92765L4.35418 16.0983C4.89365 17.0382 5.61411 17.8619 6.47389 18.5216C7.33367 19.1814 8.31572 19.6642 9.36324 19.942C10.0641 20.1292 10.7865 20.2238 11.512 20.2233C12.9589 20.2209 14.3798 19.838 15.632 19.113C16.8842 18.388 17.9237 17.3464 18.6462 16.0928C19.3687 14.8392 19.7488 13.4176 19.7483 11.9707C19.7478 10.5237 19.3669 9.10238 18.6436 7.84921ZM18.0182 13.7208C17.6728 15.0103 16.9526 16.1685 15.949 17.0488C14.9453 17.929 13.7031 18.4919 12.3795 18.6662C11.0559 18.8405 9.71031 18.6184 8.51294 18.028C7.31557 17.4376 6.32017 16.5054 5.65261 15.3492L2.09011 9.17858C2.01625 9.05061 1.96831 8.90933 1.94904 8.76283C1.92977 8.61633 1.93954 8.46746 1.9778 8.32473C2.05507 8.03648 2.24368 7.79074 2.50215 7.64155C2.76061 7.49237 3.06775 7.45197 3.356 7.52924C3.49872 7.5675 3.63252 7.6335 3.74974 7.72346C3.86696 7.81343 3.96531 7.92561 4.03918 8.05358L6.10168 11.6255C6.14947 11.7135 6.21441 11.791 6.29266 11.8535C6.37091 11.916 6.46089 11.9623 6.55728 11.9894C6.65368 12.0166 6.75454 12.0242 6.85392 12.0118C6.9533 11.9993 7.04918 11.9671 7.1359 11.917C7.22263 11.8669 7.29844 11.8 7.35887 11.7201C7.4193 11.6402 7.46312 11.5491 7.48775 11.452C7.51237 11.3549 7.51731 11.2539 7.50226 11.1549C7.48721 11.0558 7.45247 10.9608 7.40011 10.8755L3.83761 4.70577C3.72637 4.51307 3.67478 4.2917 3.68935 4.06967C3.70392 3.84764 3.784 3.63491 3.91948 3.4584C4.05495 3.28188 4.23972 3.1495 4.45043 3.078C4.66114 3.0065 4.88832 2.99909 5.10324 3.05671C5.2462 3.09442 5.38024 3.16017 5.49757 3.25013C5.61489 3.3401 5.71317 3.45249 5.78668 3.58077L8.97418 9.10171C9.07638 9.26836 9.23961 9.38851 9.42911 9.43658C9.6186 9.48465 9.81937 9.45683 9.98865 9.35905C10.1579 9.26127 10.2823 9.10126 10.3354 8.9131C10.3884 8.72494 10.3659 8.52351 10.2726 8.35171L7.83512 4.13296C7.69236 3.87501 7.65657 3.57133 7.73544 3.28726C7.81431 3.00319 8.00154 2.76143 8.25684 2.614C8.51215 2.46657 8.81512 2.42525 9.10058 2.49892C9.38604 2.5726 9.63118 2.75539 9.78324 3.00796L12.9998 8.57858C12.181 9.25702 11.6283 10.2031 11.4396 11.2496C11.2509 12.2961 11.4383 13.3756 11.9686 14.2973C12.068 14.4696 12.2318 14.5954 12.424 14.6469C12.6162 14.6984 12.8209 14.6715 12.9932 14.572C13.1655 14.4726 13.2913 14.3087 13.3428 14.1166C13.3943 13.9244 13.3674 13.7196 13.2679 13.5473C12.8702 12.8583 12.7624 12.0396 12.9682 11.2711C13.1741 10.5026 13.6768 9.84739 14.3657 9.44952C14.4511 9.40029 14.5259 9.33473 14.5859 9.25658C14.6458 9.17844 14.6899 9.08924 14.7154 8.99408C14.7409 8.89893 14.7474 8.79968 14.7345 8.702C14.7217 8.60433 14.6897 8.51015 14.6404 8.42483L13.7029 6.80108C13.5602 6.54313 13.5244 6.23946 13.6033 5.95539C13.6821 5.67132 13.8694 5.42956 14.1247 5.28213C14.38 5.1347 14.6829 5.09337 14.9684 5.16705C15.2539 5.24072 15.499 5.42351 15.6511 5.67608L17.3386 8.59921C17.7849 9.36534 18.0749 10.2124 18.1915 11.0914C18.3082 11.9704 18.2493 12.8638 18.0182 13.7198V13.7208ZM15.2751 1.28015C15.3006 1.18496 15.3445 1.09573 15.4045 1.01754C15.4645 0.939358 15.5392 0.873753 15.6245 0.824475C15.7099 0.775198 15.8041 0.743216 15.9017 0.730355C15.9994 0.717494 16.0987 0.724007 16.1939 0.749522C17.6854 1.14983 18.9126 2.07233 19.6495 3.34921C19.7489 3.52152 19.7759 3.72628 19.7244 3.91844C19.6729 4.11061 19.5471 4.27444 19.3748 4.3739C19.2025 4.47335 18.9977 4.50029 18.8056 4.44877C18.6134 4.39726 18.4496 4.27152 18.3501 4.09921C17.8139 3.16921 16.9101 2.49421 15.8057 2.1989C15.7106 2.17344 15.6213 2.12947 15.5431 2.06952C15.465 2.00956 15.3993 1.93478 15.3501 1.84946C15.3008 1.76414 15.2688 1.66995 15.2559 1.57226C15.2431 1.47458 15.2496 1.37531 15.2751 1.28015ZM5.58511 20.693C5.52414 20.7704 5.4485 20.835 5.36253 20.8832C5.27656 20.9313 5.18194 20.9621 5.08408 20.9737C4.98622 20.9853 4.88703 20.9774 4.7922 20.9507C4.69736 20.9239 4.60873 20.8787 4.53136 20.8176C3.50011 20.003 2.64605 18.982 1.85011 17.6039C1.75066 17.4316 1.72372 17.2268 1.77524 17.0347C1.82675 16.8425 1.95249 16.6787 2.1248 16.5792C2.29711 16.4798 2.50187 16.4528 2.69404 16.5043C2.8862 16.5558 3.05003 16.6816 3.14949 16.8539C3.84699 18.0614 4.58105 18.9464 5.46043 19.6401C5.61649 19.7633 5.71729 19.9433 5.74067 20.1407C5.76405 20.3382 5.7081 20.5368 5.58511 20.693Z" fill="#2ED573"/>
</svg>
