<svg width="26" height="27" viewBox="0 0 26 27" fill="none" xmlns="http://www.w3.org/2000/svg">
<path d="M24 0.474182H2C1.46957 0.474182 0.960859 0.684896 0.585786 1.05997C0.210714 1.43504 0 1.94375 0 2.47418V24.4742C0 25.0046 0.210714 25.5133 0.585786 25.8884C0.960859 26.2635 1.46957 26.4742 2 26.4742H24C24.5304 26.4742 25.0391 26.2635 25.4142 25.8884C25.7893 25.5133 26 25.0046 26 24.4742V2.47418C26 1.94375 25.7893 1.43504 25.4142 1.05997C25.0391 0.684896 24.5304 0.474182 24 0.474182ZM24 24.4742H2V2.47418H24V24.4742ZM9 11.4742V19.4742C9 19.7394 8.89464 19.9938 8.70711 20.1813C8.51957 20.3688 8.26522 20.4742 8 20.4742C7.73478 20.4742 7.48043 20.3688 7.29289 20.1813C7.10536 19.9938 7 19.7394 7 19.4742V11.4742C7 11.209 7.10536 10.9546 7.29289 10.7671C7.48043 10.5795 7.73478 10.4742 8 10.4742C8.26522 10.4742 8.51957 10.5795 8.70711 10.7671C8.89464 10.9546 9 11.209 9 11.4742ZM20 14.9742V19.4742C20 19.7394 19.8946 19.9938 19.7071 20.1813C19.5196 20.3688 19.2652 20.4742 19 20.4742C18.7348 20.4742 18.4804 20.3688 18.2929 20.1813C18.1054 19.9938 18 19.7394 18 19.4742V14.9742C18 14.3111 17.7366 13.6753 17.2678 13.2064C16.7989 12.7376 16.163 12.4742 15.5 12.4742C14.837 12.4742 14.2011 12.7376 13.7322 13.2064C13.2634 13.6753 13 14.3111 13 14.9742V19.4742C13 19.7394 12.8946 19.9938 12.7071 20.1813C12.5196 20.3688 12.2652 20.4742 12 20.4742C11.7348 20.4742 11.4804 20.3688 11.2929 20.1813C11.1054 19.9938 11 19.7394 11 19.4742V11.4742C11.0012 11.2292 11.0923 10.9933 11.256 10.811C11.4197 10.6288 11.6446 10.513 11.888 10.4855C12.1314 10.4581 12.3764 10.521 12.5765 10.6622C12.7767 10.8034 12.918 11.0132 12.9738 11.2517C13.6502 10.7928 14.4389 10.5268 15.2552 10.4823C16.0714 10.4379 16.8844 10.6166 17.6067 10.9993C18.329 11.382 18.9335 11.9542 19.3551 12.6545C19.7768 13.3548 19.9997 14.1567 20 14.9742ZM9.5 7.97418C9.5 8.27085 9.41203 8.56086 9.2472 8.80754C9.08238 9.05421 8.84811 9.24647 8.57403 9.36C8.29994 9.47353 7.99834 9.50324 7.70736 9.44536C7.41639 9.38748 7.14912 9.24462 6.93934 9.03484C6.72956 8.82506 6.5867 8.55779 6.52882 8.26682C6.47094 7.97585 6.50065 7.67425 6.61418 7.40016C6.72771 7.12607 6.91997 6.8918 7.16665 6.72698C7.41332 6.56216 7.70333 6.47418 8 6.47418C8.39782 6.47418 8.77936 6.63222 9.06066 6.91352C9.34196 7.19483 9.5 7.57636 9.5 7.97418Z" fill="#2ED573"/>
</svg>
