<svg width="23" height="22" viewBox="0 0 23 22" fill="none" xmlns="http://www.w3.org/2000/svg">
<path d="M17.5232 11.5736L12.6847 9.79231L10.9035 4.95012C10.798 4.66355 10.6072 4.41624 10.3567 4.24154C10.1063 4.06685 9.80824 3.97318 9.50287 3.97318C9.19751 3.97318 8.89949 4.06685 8.64904 4.24154C8.39858 4.41624 8.20773 4.66355 8.10225 4.95012L6.31912 9.78668L1.47694 11.5679C1.19037 11.6734 0.943055 11.8643 0.768361 12.1147C0.593666 12.3652 0.5 12.6632 0.5 12.9686C0.5 13.2739 0.593666 13.5719 0.768361 13.8224C0.943055 14.0729 1.19037 14.2637 1.47694 14.3692L6.31256 16.1617L8.09381 21.0011C8.1993 21.2876 8.39014 21.5349 8.6406 21.7096C8.89106 21.8843 9.18907 21.978 9.49444 21.978C9.7998 21.978 10.0978 21.8843 10.3483 21.7096C10.5987 21.5349 10.7896 21.2876 10.8951 21.0011L12.6763 16.1626L17.5185 14.3814C17.8051 14.2759 18.0524 14.085 18.2271 13.8346C18.4018 13.5841 18.4954 13.2861 18.4954 12.9807C18.4954 12.6754 18.4018 12.3774 18.2271 12.1269C18.0524 11.8764 17.8051 11.6856 17.5185 11.5801L17.5232 11.5736ZM12.1616 14.7554C11.9589 14.8298 11.7749 14.9474 11.6222 15.1001C11.4696 15.2528 11.352 15.4368 11.2776 15.6395L9.49631 20.4639L7.71881 15.6357C7.64436 15.4341 7.52712 15.2511 7.37516 15.0991C7.22319 14.9471 7.04011 14.8299 6.8385 14.7554L2.01412 12.9742L6.8385 11.1929C7.04011 11.1185 7.22319 11.0012 7.37516 10.8493C7.52712 10.6973 7.64436 10.5142 7.71881 10.3126L9.50006 5.48824L11.2813 10.3126C11.3557 10.5153 11.4733 10.6994 11.626 10.852C11.7786 11.0047 11.9627 11.1223 12.1654 11.1967L16.9897 12.9779L12.1616 14.7554ZM12.5001 3.22418C12.5001 3.02527 12.5791 2.8345 12.7197 2.69385C12.8604 2.5532 13.0511 2.47418 13.2501 2.47418H14.7501V0.974182C14.7501 0.77527 14.8291 0.584504 14.9697 0.443852C15.1104 0.3032 15.3011 0.224182 15.5001 0.224182C15.699 0.224182 15.8897 0.3032 16.0304 0.443852C16.171 0.584504 16.2501 0.77527 16.2501 0.974182V2.47418H17.7501C17.949 2.47418 18.1397 2.5532 18.2804 2.69385C18.421 2.8345 18.5001 3.02527 18.5001 3.22418C18.5001 3.42309 18.421 3.61386 18.2804 3.75451C18.1397 3.89516 17.949 3.97418 17.7501 3.97418H16.2501V5.47418C16.2501 5.67309 16.171 5.86386 16.0304 6.00451C15.8897 6.14516 15.699 6.22418 15.5001 6.22418C15.3011 6.22418 15.1104 6.14516 14.9697 6.00451C14.8291 5.86386 14.7501 5.67309 14.7501 5.47418V3.97418H13.2501C13.0511 3.97418 12.8604 3.89516 12.7197 3.75451C12.5791 3.61386 12.5001 3.42309 12.5001 3.22418ZM22.2501 7.72418C22.2501 7.92309 22.171 8.11386 22.0304 8.25451C21.8897 8.39516 21.699 8.47418 21.5001 8.47418H20.7501V9.22418C20.7501 9.42309 20.671 9.61386 20.5304 9.75451C20.3897 9.89516 20.199 9.97418 20.0001 9.97418C19.8011 9.97418 19.6104 9.89516 19.4697 9.75451C19.3291 9.61386 19.2501 9.42309 19.2501 9.22418V8.47418H18.5001C18.3011 8.47418 18.1104 8.39516 17.9697 8.25451C17.8291 8.11386 17.7501 7.92309 17.7501 7.72418C17.7501 7.52527 17.8291 7.3345 17.9697 7.19385C18.1104 7.0532 18.3011 6.97418 18.5001 6.97418H19.2501V6.22418C19.2501 6.02527 19.3291 5.8345 19.4697 5.69385C19.6104 5.5532 19.8011 5.47418 20.0001 5.47418C20.199 5.47418 20.3897 5.5532 20.5304 5.69385C20.671 5.8345 20.7501 6.02527 20.7501 6.22418V6.97418H21.5001C21.699 6.97418 21.8897 7.0532 22.0304 7.19385C22.171 7.3345 22.2501 7.52527 22.2501 7.72418Z" fill="#82E6AB"/>
</svg>
