<svg width="28" height="23" viewBox="0 0 28 23" fill="none" xmlns="http://www.w3.org/2000/svg">
<path d="M18.555 10.6417L12.555 6.64169C12.4044 6.54118 12.2293 6.48347 12.0484 6.47471C11.8675 6.46595 11.6877 6.50646 11.528 6.59193C11.3684 6.6774 11.2349 6.80462 11.1419 6.96C11.0489 7.11538 10.9999 7.2931 11 7.47419V15.4742C10.9999 15.6553 11.0489 15.833 11.1419 15.9884C11.2349 16.1438 11.3684 16.271 11.528 16.3564C11.6877 16.4419 11.8675 16.4824 12.0484 16.4737C12.2293 16.4649 12.4044 16.4072 12.555 16.3067L18.555 12.3067C18.6922 12.2154 18.8047 12.0916 18.8825 11.9464C18.9603 11.8012 19.001 11.639 19.001 11.4742C19.001 11.3094 18.9603 11.1472 18.8825 11.002C18.8047 10.8567 18.6922 10.733 18.555 10.6417ZM13 13.6054V9.34919L16.1975 11.4742L13 13.6054ZM27.2913 4.16419C27.1735 3.70337 26.9478 3.27716 26.6329 2.92073C26.318 2.56429 25.9228 2.28784 25.48 2.11419C21.195 0.459187 14.375 0.474187 14 0.474187C13.625 0.474187 6.805 0.459187 2.52 2.11419C2.0772 2.28784 1.68204 2.56429 1.36712 2.92073C1.05219 3.27716 0.826532 3.70337 0.70875 4.16419C0.385 5.41169 0 7.69169 0 11.4742C0 15.2567 0.385 17.5367 0.70875 18.7842C0.826356 19.2452 1.05194 19.6717 1.36687 20.0284C1.68181 20.385 2.07706 20.6617 2.52 20.8354C6.625 22.4192 13.05 22.4742 13.9175 22.4742H14.0825C14.95 22.4742 21.3787 22.4192 25.48 20.8354C25.9229 20.6617 26.3182 20.385 26.6331 20.0284C26.9481 19.6717 27.1736 19.2452 27.2913 18.7842C27.615 17.5342 28 15.2567 28 11.4742C28 7.69169 27.615 5.41169 27.2913 4.16419ZM25.355 18.2892C25.3169 18.4425 25.243 18.5847 25.1394 18.704C25.0357 18.8233 24.9053 18.9163 24.7588 18.9754C20.8025 20.5029 14.0738 20.4754 14.0088 20.4754H14C13.9325 20.4754 7.20875 20.5004 3.25 18.9754C3.10346 18.9163 2.97303 18.8233 2.86938 18.704C2.76574 18.5847 2.69184 18.4425 2.65375 18.2892C2.35 17.1479 2 15.0454 2 11.4742C2 7.90294 2.35 5.80044 2.645 4.66544C2.68239 4.51116 2.75596 4.36801 2.85965 4.2478C2.96333 4.1276 3.09413 4.03381 3.24125 3.97419C7.05625 2.50044 13.4487 2.47419 13.9725 2.47419H14.0063C14.0738 2.47419 20.8038 2.45169 24.7563 3.97419C24.9028 4.03333 25.0332 4.12635 25.1369 4.24564C25.2405 4.36493 25.3144 4.50708 25.3525 4.66044C25.65 5.80044 26 7.90294 26 11.4742C26 15.0454 25.65 17.1479 25.355 18.2829V18.2892Z" fill="#2ED573"/>
</svg>
