<svg width="80" height="81" viewBox="0 0 80 81" fill="none" xmlns="http://www.w3.org/2000/svg">
<path d="M11.9868 12.4342L16.3651 62.0508C16.5468 64.1125 17.9818 65.8508 19.9718 66.4192L37.7101 71.4875C39.2067 71.9158 40.7918 71.9158 42.2884 71.4875L60.0268 66.4192C62.0168 65.8508 63.4518 64.1142 63.6334 62.0508L68.0118 12.4342C68.1851 10.4842 66.6501 8.8075 64.6934 8.8075H15.3068C13.3501 8.8075 11.8151 10.4842 11.9868 12.4342Z" fill="#898E98"/>
<path d="M55.1667 22.1407H40V28.8074H48.1667L47.6667 35.4741H40V42.1407H47.3333L46.8333 49.6407L40 51.9741V58.9741L53.1667 54.6407L54.3333 35.4741L55.1667 22.1407Z" fill="white"/>
<path d="M39.9998 22.1407V28.8074H25.1665L24.6665 22.1407H39.9998ZM32.3332 35.4741L32.6665 42.1407H39.9998V35.4741H32.3332ZM32.9998 45.4741H26.3332L26.8332 54.6407L39.9998 58.9741V51.9741L33.1665 49.6407L32.9998 45.4741Z" fill="white"/>
</svg>
