<svg width="80" height="81" viewBox="0 0 80 81" fill="none" xmlns="http://www.w3.org/2000/svg">
<path d="M11.9868 12.4342L16.3651 62.0508C16.5468 64.1125 17.9818 65.8508 19.9718 66.4192L37.7101 71.4875C39.2067 71.9158 40.7918 71.9158 42.2884 71.4875L60.0268 66.4192C62.0168 65.8508 63.4518 64.1142 63.6334 62.0508L68.0118 12.4342C68.1851 10.4842 66.6501 8.8075 64.6934 8.8075H15.3068C13.3501 8.8075 11.8151 10.4842 11.9868 12.4342Z" fill="#898E98"/>
<path d="M40 42.1407V35.4741H54.3333L53.1667 54.6407L40 58.9741V51.9741L46.8333 49.6407L47.3333 42.1407H40ZM54.8333 28.8074L55.3333 22.1407H40V28.8074H54.8333Z" fill="white"/>
<path d="M40.0002 51.9741V58.9741L26.8335 54.6407L26.1668 45.4741H32.8335L33.1668 49.6407L40.0002 51.9741ZM31.8335 28.8074H40.0002V22.1407H24.8335L26.0002 42.1407H40.0002V35.4741H32.3335L31.8335 28.8074Z" fill="white"/>
</svg>
