<svg width="23" height="22" viewBox="0 0 23 22" fill="none" xmlns="http://www.w3.org/2000/svg">
<path d="M17.5232 11.5735L12.6847 9.79225L10.9035 4.95006C10.798 4.66349 10.6072 4.41618 10.3567 4.24148C10.1063 4.06679 9.80824 3.97312 9.50287 3.97312C9.19751 3.97312 8.89949 4.06679 8.64904 4.24148C8.39858 4.41618 8.20773 4.66349 8.10225 4.95006L6.31912 9.78662L1.47694 11.5679C1.19037 11.6734 0.943055 11.8642 0.768361 12.1147C0.593666 12.3651 0.5 12.6631 0.5 12.9685C0.5 13.2739 0.593666 13.5719 0.768361 13.8223C0.943055 14.0728 1.19037 14.2636 1.47694 14.3691L6.31256 16.1616L8.09381 21.001C8.1993 21.2876 8.39014 21.5349 8.6406 21.7096C8.89106 21.8843 9.18907 21.9779 9.49444 21.9779C9.7998 21.9779 10.0978 21.8843 10.3483 21.7096C10.5987 21.5349 10.7896 21.2876 10.8951 21.001L12.6763 16.1626L17.5185 14.3813C17.8051 14.2758 18.0524 14.085 18.2271 13.8345C18.4018 13.5841 18.4954 13.286 18.4954 12.9807C18.4954 12.6753 18.4018 12.3773 18.2271 12.1268C18.0524 11.8764 17.8051 11.6855 17.5185 11.5801L17.5232 11.5735ZM12.1616 14.7554C11.9589 14.8298 11.7749 14.9474 11.6222 15.1C11.4696 15.2527 11.352 15.4368 11.2776 15.6394L9.49631 20.4638L7.71881 15.6357C7.64436 15.4341 7.52712 15.251 7.37516 15.099C7.22319 14.9471 7.04011 14.8298 6.8385 14.7554L2.01412 12.9741L6.8385 11.1929C7.04011 11.1184 7.22319 11.0012 7.37516 10.8492C7.52712 10.6973 7.64436 10.5142 7.71881 10.3126L9.50006 5.48818L11.2813 10.3126C11.3557 10.5152 11.4733 10.6993 11.626 10.852C11.7786 11.0046 11.9627 11.1222 12.1654 11.1966L16.9897 12.9779L12.1616 14.7554ZM12.5001 3.22412C12.5001 3.02521 12.5791 2.83444 12.7197 2.69379C12.8604 2.55314 13.0511 2.47412 13.2501 2.47412H14.7501V0.974121C14.7501 0.775209 14.8291 0.584443 14.9697 0.443791C15.1104 0.303139 15.3011 0.224121 15.5001 0.224121C15.699 0.224121 15.8897 0.303139 16.0304 0.443791C16.171 0.584443 16.2501 0.775209 16.2501 0.974121V2.47412H17.7501C17.949 2.47412 18.1397 2.55314 18.2804 2.69379C18.421 2.83444 18.5001 3.02521 18.5001 3.22412C18.5001 3.42303 18.421 3.6138 18.2804 3.75445C18.1397 3.8951 17.949 3.97412 17.7501 3.97412H16.2501V5.47412C16.2501 5.67303 16.171 5.8638 16.0304 6.00445C15.8897 6.1451 15.699 6.22412 15.5001 6.22412C15.3011 6.22412 15.1104 6.1451 14.9697 6.00445C14.8291 5.8638 14.7501 5.67303 14.7501 5.47412V3.97412H13.2501C13.0511 3.97412 12.8604 3.8951 12.7197 3.75445C12.5791 3.6138 12.5001 3.42303 12.5001 3.22412ZM22.2501 7.72412C22.2501 7.92303 22.171 8.1138 22.0304 8.25445C21.8897 8.3951 21.699 8.47412 21.5001 8.47412H20.7501V9.22412C20.7501 9.42303 20.671 9.6138 20.5304 9.75445C20.3897 9.8951 20.199 9.97412 20.0001 9.97412C19.8011 9.97412 19.6104 9.8951 19.4697 9.75445C19.3291 9.6138 19.2501 9.42303 19.2501 9.22412V8.47412H18.5001C18.3011 8.47412 18.1104 8.3951 17.9697 8.25445C17.8291 8.1138 17.7501 7.92303 17.7501 7.72412C17.7501 7.52521 17.8291 7.33444 17.9697 7.19379C18.1104 7.05314 18.3011 6.97412 18.5001 6.97412H19.2501V6.22412C19.2501 6.02521 19.3291 5.83444 19.4697 5.69379C19.6104 5.55314 19.8011 5.47412 20.0001 5.47412C20.199 5.47412 20.3897 5.55314 20.5304 5.69379C20.671 5.83444 20.7501 6.02521 20.7501 6.22412V6.97412H21.5001C21.699 6.97412 21.8897 7.05314 22.0304 7.19379C22.171 7.33444 22.2501 7.52521 22.2501 7.72412Z" fill="#82E6AB"/>
</svg>
